<svg xmlns="http://www.w3.org/2000/svg" version="1.1" xmlns:xlink="http://www.w3.org/1999/xlink" xmlns:svgjs="http://svgjs.dev/svgjs" viewBox="0 0 800 800"><defs><linearGradient x1="50%" y1="0%" x2="50%" y2="100%" id="ccchaos-grad"><stop stop-color="hsl(206, 75%, 49%)" stop-opacity="1" offset="0%"></stop><stop stop-color="hsl(331, 90%, 56%)" stop-opacity="1" offset="100%"></stop></linearGradient></defs><g stroke-width="2" stroke="url(#ccchaos-grad)" fill="none" stroke-linecap="round"><path d="M380.7 128.17C390.12 127.2 399.54 125.78 408.94 124.06 418.36 121.72 427.79 119.52 437.22 117.7 446.7 115.98 456.21 115.1 465.76 115.22 475.4 116.03 485.11 118.08 494.9 121.38 504.81 125.53 514.83 130.86 524.94 137.23 535.2 144.22 545.56 151.99 555.99 160.34 566.53 168.89 577.11 177.72 587.66 186.67 598.22 195.41 608.64 204.08 618.83 212.6 628.84 220.69 638.46 228.56 647.53 236.23 656.2 243.43 664.12 250.48 671.15 257.43 677.53 264 682.85 270.59 686.97 277.26 690.29 283.67 692.34 290.28 693.07 297.12 693.04 303.82 691.77 310.85 689.34 318.22 686.42 325.53 682.6 333.23 678.06 341.33 673.54 349.4 668.69 357.89 663.73 366.82 659.41 375.73 655.38 385.08 651.84 394.87 649.43 404.67 647.78 414.7 646.89 424.94 647.2 435.21 648.15 445.71 649.63 456.42 652 467.16 654.59 478.13 657.21 489.28 660.24 500.45 662.93 511.78 665.13 523.17 667.24 534.49 668.55 545.78 668.97 556.9 668.93 567.77 667.84 578.26 665.69 588.2 662.93 597.59 659.09 606.16 654.22 613.71 648.77 620.43 642.39 625.9 635.19 630 627.52 633.16 619.18 634.93 610.26 635.35 601.06 635.13 591.43 633.9 581.48 631.91 571.4 630.08 561.1 628.15 550.67 626.54 540.21 626.13 529.68 626.75 519.16 628.71 508.66 632.63 498.18 638.19 487.77 645.37 477.39 654.3 467.09 664.34 456.87 675.03 446.69 686.09 436.59 696.62 426.59 705.91 416.61 713.69 406.71 719.04 396.91 721.48 387.11 721.27 377.63 717.96 368.45 711.87 359.26 703.87 350.37 694.08 341.78 683.21 333.15 672.17 324.81 661.27 316.75 651.08 308.64 642.29 300.79 634.92 293.21 629.11 285.56 625.25 278.14 622.88 270.97 621.76 263.68 622.12 256.61 623.12 249.74 624.39 242.73 626.15 235.9 627.5 229.24 628.13 222.42 628.39 215.75 627.5 209.25 625.37 202.57 622.42 196.04 618.14 189.68 612.6 183.17 606.23 176.84 598.75 170.74 590.34 164.52 581.33 158.55 571.61 152.88 561.39 147.17 550.83 141.8 539.97 136.84 528.96 131.92 517.82 127.46 506.65 123.5 495.56 119.68 484.45 116.42 473.46 113.75 462.67 111.29 451.89 109.46 441.31 108.3 430.96 107.37 420.62 107.11 410.5 107.57 400.62 108.23 390.74 109.56 381.31 111.5 372.33 113.59 363.33 116.23 354.75 119.38 346.59 122.58 338.38 126.22 330.55 130.25 323.08 134.24 315.51 138.57 308.25 143.18 301.26 147.67 294.09 152.41 287.09 157.36 280.23 162.13 273.07 167.1 265.93 172.24 258.75 177.18 251.18 182.31 243.47 187.61 235.6 192.72 227.29 198.03 218.79 203.54 210.13 208.9 201.13 214.49 192.07 220.33 183.04 226.06 173.96 232.06 165.15 238.33 156.78 244.55 148.75 251.07 141.46 257.88 135.08 264.66 129.42 271.75 124.87 279.14 121.56 286.53 119.06 294.21 117.77 302.17 117.62 310.14 117.99 318.38 119.19 326.88 121.04 335.37 122.76 344.12 124.64 353.1 126.46 362.07 127.49 371.27 128.09 380.69 128.18" stroke-dasharray="3 6" transform="rotate(0, 400, 400)" opacity="0.05"></path><path d="M383.44 139.58C392.56 138.64 401.71 137.27 410.88 135.62 420.06 133.34 429.29 131.18 438.55 129.33 447.85 127.52 457.21 126.47 466.63 126.32 476.12 126.76 485.69 128.36 495.34 131.13 505.09 134.69 514.93 139.41 524.85 145.17 534.87 151.57 544.95 158.8 555.06 166.69 565.24 174.86 575.38 183.42 585.44 192.2 595.45 200.91 605.26 209.63 614.77 218.29 624.07 226.63 632.93 234.81 641.2 242.82 649.05 250.42 656.16 257.87 662.38 265.2 667.99 272.16 672.57 279.09 676.04 286.04 678.77 292.71 680.34 299.5 680.71 306.46 680.41 313.25 679.01 320.29 676.56 327.61 673.72 334.84 670.08 342.41 665.8 350.34 661.58 358.22 657.07 366.5 652.46 375.19 648.46 383.85 644.71 392.94 641.37 402.47 639.07 412 637.43 421.75 636.47 431.71 636.59 441.69 637.29 451.87 638.47 462.23 640.47 472.61 642.69 483.15 644.97 493.79 647.66 504.42 650.09 515.09 652.11 525.72 654.1 536.22 655.41 546.55 655.95 556.59 656.13 566.3 655.38 575.52 653.67 584.08 651.44 592.09 648.23 599.21 644.06 605.3 639.36 610.64 633.78 614.8 627.4 617.71 620.58 619.87 613.07 620.86 604.98 620.73 596.59 620.23 587.74 619 578.52 617.28 569.14 615.94 559.5 614.72 549.67 613.98 539.79 614.49 529.79 616.06 519.74 618.93 509.69 623.59 499.63 629.72 489.6 637.24 479.59 646.24 469.62 656.13 459.72 666.46 449.85 677 440.05 686.92 430.33 695.59 420.63 702.83 411.01 707.8 401.49 710.07 391.96 709.92 382.74 706.9 373.82 701.31 364.88 693.91 356.23 684.79 347.87 674.54 339.47 664.01 331.35 653.45 323.49 643.38 315.57 634.44 307.9 626.67 300.49 620.26 292.98 615.58 285.7 612.29 278.64 610.22 271.47 609.59 264.49 609.72 257.7 610.29 250.77 611.53 244.01 612.6 237.41 613.22 230.65 613.73 224.04 613.36 217.59 611.97 210.97 609.99 204.51 606.84 198.22 602.55 191.79 597.55 185.54 591.47 179.52 584.45 173.4 576.84 167.54 568.47 161.97 559.49 156.39 550.13 151.14 540.36 146.29 530.31 141.51 520.07 137.16 509.7 133.32 499.29 129.61 488.82 126.45 478.38 123.87 468.06 121.5 457.73 119.74 447.54 118.64 437.53 117.77 427.54 117.56 417.72 118.03 408.11 118.72 398.5 120.06 389.31 121.99 380.54 124.06 371.74 126.68 363.32 129.8 355.27 132.96 347.17 136.56 339.39 140.54 331.91 144.49 324.31 148.76 316.95 153.32 309.78 157.76 302.43 162.45 295.18 167.35 287.99 172.07 280.51 176.99 273.01 182.08 265.43 186.97 257.5 192.04 249.43 197.28 241.22 202.32 232.65 207.55 223.94 212.97 215.15 218.22 206.14 223.69 197.16 229.38 188.32 234.95 179.55 240.77 171.14 246.85 163.27 252.84 155.81 259.11 149.14 265.65 143.41 272.15 138.4 278.94 134.48 286.02 131.73 293.07 129.73 300.41 128.84 308.02 128.99 315.62 129.57 323.5 130.89 331.65 132.76 339.78 134.46 348.17 136.28 356.81 138.01 365.44 138.97 374.31 139.52 383.43 139.59" stroke-dasharray="3 3" transform="rotate(4.04, 400, 400)" opacity="0.09"></path><path d="M386.87 150.99C395.69 150.08 404.58 148.77 413.51 147.18 422.45 144.98 431.46 142.86 440.51 141.01 449.61 139.14 458.78 137.94 468.01 137.55 477.3 137.66 486.68 138.83 496.12 141.09 505.64 144.09 515.23 148.2 524.86 153.32 534.56 159.1 544.29 165.73 553.99 173.07 563.71 180.78 573.36 188.95 582.85 197.45 592.25 205.98 601.4 214.63 610.2 223.3 618.77 231.76 626.85 240.14 634.32 248.39 641.38 256.31 647.69 264.1 653.15 271.77 658.03 279.11 661.94 286.39 664.81 293.64 667.03 300.62 668.18 307.66 668.24 314.8 667.73 321.77 666.23 328.91 663.8 336.27 661.06 343.52 657.61 351.05 653.6 358.89 649.68 366.66 645.5 374.79 641.23 383.27 637.53 391.74 634.04 400.59 630.91 409.84 628.71 419.09 627.09 428.53 626.07 438.13 626.02 447.74 626.49 457.51 627.38 467.4 629.05 477.28 630.92 487.24 632.86 497.23 635.22 507.15 637.37 517.02 639.18 526.74 641.03 536.27 642.3 545.54 642.9 554.39 643.23 562.89 642.74 570.81 641.4 578.02 638.29 587.58 626.97 600.92 618.92 604.43 612.9 605.86 606.2 606.32 598.91 605.92 591.33 605.38 583.26 604.35 574.79 603.08 566.14 602.35 557.19 601.92 548.01 602.07 538.75 603.49 529.33 605.95 519.81 609.63 510.27 614.92 500.67 621.51 491.07 629.27 481.48 638.26 471.89 647.93 462.36 657.85 452.84 667.84 443.36 677.15 433.96 685.23 424.57 691.95 415.24 696.55 406 698.66 396.75 698.57 387.8 695.83 379.13 690.7 370.44 683.89 362.02 675.42 353.88 665.81 345.7 655.82 337.77 645.65 330.09 635.78 322.35 626.79 314.84 618.75 307.56 611.85 300.2 606.48 293.04 602.35 286.08 599.38 279.01 597.8 272.12 597.03 265.4 596.82 258.55 597.39 251.85 598.01 245.31 598.41 238.62 598.91 232.07 598.78 225.68 597.87 219.14 596.58 212.75 594.31 206.53 591.04 200.2 587.2 194.05 582.36 188.13 576.61 182.13 570.33 176.39 563.25 170.94 555.51 165.49 547.4 160.39 538.78 155.66 529.78 151.02 520.56 146.81 511.09 143.08 501.48 139.51 491.78 136.46 482.02 133.98 472.28 131.7 462.52 130.03 452.82 128.99 443.22 128.17 433.63 128 424.16 128.5 414.85 129.21 405.53 130.54 396.58 132.46 387.97 134.51 379.35 137.1 371.05 140.16 363.05 143.29 354.99 146.84 347.19 150.76 339.63 154.65 331.94 158.86 324.42 163.36 317.03 167.75 309.45 172.38 301.93 177.22 294.41 181.9 286.63 186.77 278.8 191.8 270.88 196.65 262.66 201.67 254.32 206.84 245.88 211.83 237.17 217 228.4 222.33 219.62 227.5 210.73 232.87 201.97 238.44 193.46 243.88 185.11 249.55 177.21 255.44 169.91 261.25 163.09 267.31 157.09 273.63 152.02 279.89 147.66 286.41 144.34 293.21 142.13 299.97 140.6 307 140.07 314.31 140.48 321.59 141.25 329.14 142.65 336.96 144.52 344.76 146.18 352.82 147.92 361.15 149.56 369.46 150.45 378.03 150.95 386.86 150.99" stroke-dasharray="10 4" transform="rotate(8.08, 400, 400)" opacity="0.13"></path><path d="M390.83 162.4C399.37 161.52 407.99 160.27 416.66 158.75 425.35 156.65 434.12 154.59 442.94 152.74 451.8 150.84 460.73 149.52 469.72 148.92 478.77 148.74 487.88 149.52 497.05 151.3 506.26 153.75 515.53 157.25 524.8 161.73 534.11 166.86 543.41 172.86 552.63 179.59 561.83 186.74 570.91 194.44 579.78 202.53 588.54 210.76 597 219.2 605.07 227.75 612.88 236.19 620.18 244.63 626.88 253 633.17 261.13 638.73 269.17 643.46 277.1 647.67 284.76 650.97 292.34 653.31 299.87 655.07 307.16 655.86 314.46 655.67 321.81 655 328.99 653.44 336.28 651.06 343.73 648.43 351.06 645.19 358.61 641.45 366.4 637.82 374.13 633.97 382.14 630.03 390.44 626.61 398.73 623.38 407.35 620.44 416.29 618.35 425.24 616.76 434.32 615.68 443.5 615.49 452.68 615.74 461.95 616.37 471.25 617.72 480.54 619.26 489.82 620.88 499.02 622.91 508.14 624.77 517.1 626.36 525.81 628.04 534.32 629.23 542.46 629.83 550.1 630.11 560.74 626.41 577.77 622.3 583.74 616.8 588.01 601.55 591.47 592.06 591.14 585.26 590.76 577.95 590.12 570.23 589.43 562.32 589.41 554.08 589.8 545.57 590.85 536.96 593.12 528.15 596.4 519.2 600.78 510.22 606.61 501.13 613.53 492.01 621.43 482.88 630.33 473.72 639.71 464.58 649.19 455.45 658.63 446.34 667.34 437.27 674.83 428.22 681.05 419.21 685.29 410.26 687.25 401.31 687.2 392.63 684.73 384.21 680.05 375.78 673.81 367.59 665.97 359.65 657 351.68 647.58 343.94 637.85 336.43 628.25 328.86 619.32 321.5 611.12 314.35 603.86 307.12 597.91 300.07 593.05 293.21 589.26 286.24 586.77 279.43 585.11 272.78 584.07 266.02 583.88 259.39 583.91 252.91 583.91 246.3 584.18 239.82 584.05 233.5 583.36 227.05 582.49 220.75 580.82 214.62 578.32 208.4 575.4 202.37 571.6 196.56 566.94 190.7 561.84 185.1 555.97 179.79 549.4 174.49 542.49 169.53 535.01 164.96 527.08 160.47 518.92 156.4 510.43 152.81 501.7 149.37 492.85 146.44 483.85 144.07 474.77 141.9 465.66 140.31 456.52 139.33 447.4 138.58 438.28 138.45 429.21 138.97 420.21 139.69 411.21 141.02 402.49 142.9 394.06 144.94 385.6 147.48 377.39 150.49 369.42 153.56 361.38 157.05 353.54 160.89 345.86 164.72 338.07 168.87 330.38 173.29 322.76 177.62 314.97 182.19 307.19 186.96 299.39 191.6 291.37 196.41 283.28 201.39 275.11 206.2 266.71 211.17 258.23 216.28 249.7 221.23 241 226.33 232.3 231.59 223.68 236.7 215.06 241.98 206.65 247.44 198.58 252.78 190.76 258.32 183.45 264.07 176.8 269.72 170.65 275.61 165.33 281.73 160.94 287.78 157.22 294.08 154.49 300.63 152.78 307.13 151.67 313.9 151.47 320.93 152.11 327.92 153.01 335.19 154.47 342.71 156.32 350.2 157.93 357.97 159.58 365.99 161.12 374 161.93 382.28 162.38 390.82 162.4" stroke-dasharray="11 0" transform="rotate(12.12, 400, 400)" opacity="0.16"></path><path d="M395.18 173.81C403.44 172.97 411.78 171.78 420.18 170.34 428.59 168.32 437.09 166.34 445.64 164.52 454.22 162.61 462.88 161.2 471.58 160.42 480.32 159.98 489.12 160.41 497.94 161.74 506.79 163.68 515.66 166.59 524.51 170.45 533.36 174.92 542.16 180.24 550.85 186.32 559.48 192.86 567.95 199.98 576.17 207.57 584.24 215.37 591.99 223.47 599.32 231.76 606.38 240.05 612.93 248.4 618.88 256.75 624.43 264.96 629.29 273.12 633.36 281.2 636.95 289.08 639.7 296.88 641.56 304.63 642.93 312.18 643.42 319.71 643.02 327.25 642.23 334.63 640.65 342.08 638.35 349.62 635.86 357.05 632.83 364.64 629.36 372.39 626.02 380.09 622.48 388 618.85 396.13 615.71 404.25 612.72 412.62 609.97 421.24 607.99 429.86 606.43 438.53 605.31 447.23 604.99 455.93 605.05 464.62 605.44 473.28 606.5 481.89 607.72 490.42 609.02 498.77 610.73 507.03 612.32 515.03 613.68 522.71 615.16 530.18 616.23 537.21 616.8 543.71 617.18 552.65 614.27 566.45 610.81 571.06 606.14 574.3 592.85 576.81 584.44 576.64 578.38 576.6 571.82 576.48 564.83 576.48 557.65 577.21 550.11 578.43 542.28 580.33 534.34 583.39 526.17 587.39 517.82 592.37 509.41 598.61 500.88 605.77 492.26 613.7 483.63 622.43 474.94 631.47 466.23 640.48 457.52 649.35 448.8 657.46 440.1 664.38 431.41 670.12 422.73 674.03 414.1 675.84 405.46 675.84 397.06 673.61 388.9 669.36 380.72 663.66 372.77 656.45 365.04 648.11 357.28 639.27 349.72 630.03 342.38 620.76 334.98 611.98 327.77 603.73 320.74 596.23 313.64 589.83 306.71 584.37 299.94 579.85 293.08 576.53 286.36 574.01 279.79 572.14 273.11 571.16 266.57 570.49 260.16 569.95 253.65 569.83 247.26 569.48 241.02 568.77 234.68 568.06 228.49 566.74 222.48 564.75 216.39 562.5 210.49 559.49 204.82 555.72 199.12 551.61 193.67 546.76 188.51 541.25 183.39 535.44 178.59 529.03 174.18 522.13 169.85 515.01 165.95 507.49 162.5 499.65 159.21 491.69 156.41 483.49 154.15 475.13 152.09 466.71 150.59 458.18 149.69 449.59 148.99 440.99 148.9 432.35 149.43 423.7 150.17 415.05 151.48 406.59 153.34 398.33 155.34 390.05 157.83 381.94 160.77 373.99 163.78 365.99 167.19 358.11 170.96 350.33 174.71 342.45 178.78 334.62 183.12 326.81 187.38 318.87 191.88 310.9 196.58 302.9 201.15 294.73 205.91 286.5 210.82 278.22 215.58 269.78 220.5 261.3 225.56 252.82 230.46 244.27 235.51 235.8 240.7 227.49 245.75 219.27 250.96 211.34 256.33 203.82 261.58 196.61 267.01 189.96 272.64 184 278.16 178.56 283.9 173.93 289.84 170.21 295.72 167.09 301.82 164.91 308.16 163.67 314.45 162.94 320.98 163.02 327.76 163.85 334.5 164.86 341.5 166.34 348.74 168.15 355.97 169.69 363.45 171.24 371.19 172.67 378.92 173.41 386.91 173.81 395.17 173.81" stroke-dasharray="2 0" transform="rotate(16.16, 400, 400)" opacity="0.20"></path><path d="M399.73 185.22C407.69 184.41 415.74 183.29 423.85 181.93 431.97 180.02 440.17 178.11 448.42 176.35 456.69 174.45 465.02 172.98 473.38 172.06 481.77 171.4 490.19 171.51 498.61 172.45 507.05 173.9 515.47 176.26 523.83 179.5 532.17 183.31 540.42 187.96 548.53 193.36 556.55 199.23 564.37 205.71 571.91 212.71 579.3 219.99 586.33 227.62 592.93 235.52 599.27 243.5 605.09 251.62 610.31 259.82 615.18 267.95 619.38 276.08 622.84 284.18 625.88 292.15 628.15 300.07 629.6 307.94 630.63 315.65 630.87 323.33 630.32 331 629.45 338.54 627.88 346.1 625.68 353.7 623.34 361.22 620.53 368.82 617.32 376.52 614.27 384.18 611.03 391.98 607.71 399.92 604.83 407.85 602.07 415.95 599.51 424.21 597.63 432.48 596.11 440.71 594.95 448.89 594.52 457.06 594.41 465.14 594.59 473.1 595.37 481.01 596.3 488.74 597.3 496.23 598.7 503.61 600.01 510.68 601.13 517.36 602.86 526.84 604.24 542.76 603.53 548.91 598.47 557.01 583.5 562.36 576.08 562.63 570.72 563.07 564.86 563.57 558.56 564.3 552.09 565.79 545.25 567.82 538.09 570.51 530.82 574.28 523.29 578.89 515.55 584.36 507.75 590.89 499.79 598.18 491.7 606.05 483.6 614.55 475.4 623.2 467.14 631.71 458.89 640 450.59 647.52 442.28 653.9 433.97 659.17 425.66 662.76 417.35 664.43 409.05 664.47 400.95 662.48 393.05 658.63 385.14 653.45 377.43 646.84 369.91 639.13 362.37 630.89 355.01 622.16 347.83 613.29 340.61 604.74 333.55 596.55 326.65 588.92 319.7 582.2 312.88 576.26 306.22 571.14 299.48 567.08 292.86 563.77 286.38 561.1 279.82 559.3 273.37 557.9 267.06 556.73 260.66 556.06 254.38 555.34 248.25 554.41 242.04 553.62 235.98 552.41 230.1 550.69 224.17 548.85 218.42 546.38 212.91 543.27 207.38 539.92 202.11 535.92 197.13 531.28 192.19 526.41 187.57 520.96 183.33 514.99 179.19 508.84 175.45 502.23 172.16 495.26 169.03 488.17 166.37 480.77 164.23 473.12 162.28 465.43 160.88 457.54 160.04 449.49 159.41 441.44 159.36 433.26 159.9 424.99 160.64 416.72 161.94 408.55 163.75 400.49 165.71 392.42 168.14 384.44 171.01 376.55 173.95 368.62 177.27 360.74 180.94 352.91 184.62 345 188.6 337.1 192.84 329.2 197.02 321.19 201.43 313.14 206.05 305.07 210.56 296.87 215.24 288.64 220.09 280.38 224.8 272.04 229.66 263.72 234.65 255.46 239.5 247.22 244.5 239.12 249.63 231.25 254.62 223.54 259.76 216.2 265.05 209.31 270.22 202.78 275.57 196.84 281.08 191.59 286.49 186.86 292.09 182.92 297.89 179.83 303.62 177.3 309.55 175.63 315.7 174.8 321.79 174.41 328.12 174.73 334.67 175.7 341.18 176.78 347.94 178.26 354.93 180.01 361.9 181.47 369.12 182.91 376.58 184.23 384.04 184.9 391.75 185.24 399.72 185.22" stroke-dasharray="4 8" transform="rotate(20.200000000000003, 400, 400)" opacity="0.24"></path><path d="M404.28 196.63C411.95 195.86 419.7 194.8 427.49 193.53 435.3 191.72 443.17 189.91 451.08 188.21 459 186.35 466.96 184.85 474.94 183.82 482.93 182.98 490.93 182.83 498.9 183.4 506.87 184.41 514.79 186.25 522.62 188.91 530.42 192.09 538.09 196.06 545.57 200.77 552.97 205.94 560.12 211.74 566.98 218.08 573.67 224.74 580 231.81 585.89 239.21 591.53 246.75 596.66 254.5 601.21 262.39 605.45 270.29 609.04 278.25 611.96 286.23 614.51 294.13 616.35 302.03 617.45 309.89 618.2 317.65 618.24 325.38 617.58 333.08 616.67 340.68 615.15 348.28 613.06 355.89 610.89 363.42 608.29 370.99 605.36 378.61 602.58 386.18 599.62 393.83 596.59 401.55 593.96 409.27 591.42 417.07 589.04 424.94 587.27 432.82 585.78 440.59 584.61 448.22 584.08 455.84 583.82 463.3 583.8 470.55 584.33 477.76 584.99 484.72 585.72 491.37 587.34 501.01 590.17 518.02 590.96 525.13 586.96 540.88 573.56 548.4 567.04 549.32 562.31 550.33 557.1 551.5 551.47 552.98 545.67 555.21 539.5 557.99 532.99 561.39 526.38 565.77 519.49 570.87 512.36 576.7 505.17 583.42 497.78 590.72 490.25 598.46 482.68 606.65 475 614.88 467.22 622.86 459.44 630.58 451.58 637.52 443.68 643.37 435.78 648.2 427.85 651.49 419.89 653.02 411.94 653.09 404.15 651.32 396.53 647.85 388.91 643.17 381.45 637.14 374.16 630.05 366.85 622.42 359.69 614.23 352.69 605.81 345.65 597.57 338.76 589.53 332.01 581.89 325.21 574.97 318.53 568.68 311.99 563.08 305.38 558.4 298.89 554.39 292.53 550.99 286.09 548.41 279.77 546.26 273.57 544.42 267.31 543.12 261.17 541.89 255.17 540.6 249.12 539.54 243.22 538.22 237.49 536.55 231.74 534.87 226.17 532.71 220.83 530.02 215.5 527.21 210.42 523.82 205.63 519.87 200.9 515.76 196.48 511.09 192.43 505.92 188.48 500.61 184.92 494.83 181.8 488.64 178.83 482.36 176.32 475.71 174.31 468.77 172.48 461.77 171.17 454.51 170.4 447.03 169.83 439.53 169.82 431.83 170.37 423.97 171.11 416.1 172.38 408.25 174.15 400.44 176.06 392.62 178.42 384.82 181.2 377.04 184.06 369.24 187.29 361.44 190.86 353.65 194.44 345.8 198.31 337.93 202.45 330.04 206.54 322.08 210.86 314.08 215.37 306.06 219.8 297.99 224.41 289.9 229.17 281.83 233.81 273.75 238.6 265.73 243.53 257.84 248.32 250.04 253.26 242.44 258.32 235.13 263.25 228.05 268.33 221.36 273.54 215.18 278.64 209.36 283.89 204.16 289.3 199.64 294.62 195.6 300.11 192.32 305.77 189.84 311.36 187.85 317.14 186.63 323.12 186.17 329.04 186.06 335.17 186.58 341.52 187.65 347.82 188.77 354.35 190.22 361.1 191.89 367.83 193.25 374.79 194.58 381.99 195.79 389.17 196.37 396.6 196.67 404.27 196.63" stroke-dasharray="7 1" transform="rotate(24.24, 400, 400)" opacity="0.28"></path><path d="M408.66 208.04C416.03 207.31 423.45 206.32 430.91 205.13 438.37 203.44 445.89 201.73 453.42 200.11 460.96 198.3 468.52 196.8 476.07 195.7 483.63 194.73 491.16 194.34 498.65 194.61 506.11 195.23 513.5 196.6 520.77 198.71 527.99 201.28 535.05 204.61 541.9 208.63 548.65 213.09 555.15 218.18 561.33 223.82 567.34 229.8 572.99 236.22 578.19 243.02 583.17 250.01 587.66 257.26 591.59 264.71 595.24 272.23 598.3 279.87 600.73 287.58 602.85 295.27 604.32 303 605.14 310.71 605.66 318.37 605.55 326.02 604.83 333.64 603.91 341.2 602.45 348.73 600.49 356.25 598.49 363.72 596.12 371.18 593.45 378.64 590.93 386.08 588.26 393.52 585.5 400.98 583.11 408.43 580.78 415.9 578.57 423.36 576.9 430.83 575.47 438.12 574.28 445.2 573.67 452.27 573.28 459.11 573.09 465.68 573.6 475.33 575.48 492.83 576.5 500.51 577.43 520 571.77 531.7 567.84 533.35 563.1 535.14 550.91 539.43 543.59 542.56 538.42 545.48 532.87 548.92 526.99 552.94 521.01 557.8 514.74 563.28 508.21 569.36 501.62 576.15 494.81 583.38 487.83 590.9 480.82 598.73 473.65 606.49 466.37 613.95 459.07 621.09 451.67 627.46 444.2 632.81 436.73 637.21 429.19 640.21 421.6 641.61 414.02 641.71 406.56 640.15 399.25 637.04 391.93 632.82 384.74 627.36 377.69 620.88 370.63 613.85 363.69 606.23 356.89 598.3 350.06 590.43 343.35 582.63 336.76 575.09 330.14 568.1 323.62 561.59 317.22 555.63 310.78 550.45 304.43 545.85 298.21 541.8 291.93 538.51 285.76 535.64 279.71 533.12 273.61 531.16 267.63 529.34 261.8 527.58 255.93 526.12 250.21 524.53 244.67 522.71 236.43 519.95 221.07 512.43 214.05 507.47 209.53 503.9 205.33 499.85 201.48 495.32 197.73 490.68 194.37 485.6 191.42 480.09 188.62 474.51 186.26 468.55 184.38 462.25 182.67 455.9 181.46 449.25 180.76 442.31 180.26 435.37 180.28 428.16 180.83 420.72 181.57 413.29 182.82 405.8 184.53 398.28 186.39 390.76 188.68 383.2 191.36 375.62 194.13 368.02 197.26 360.39 200.71 352.73 204.18 345.05 207.94 337.32 211.95 329.57 215.93 321.8 220.14 313.99 224.55 306.19 228.88 298.37 233.39 290.58 238.06 282.85 242.62 275.17 247.33 267.61 252.18 260.22 256.91 252.98 261.77 245.99 266.75 239.34 271.62 232.94 276.62 226.98 281.75 221.54 286.78 216.47 291.95 211.99 297.26 208.19 305.17 203.49 321.68 198.32 330.31 197.77 336.07 197.89 342.02 198.55 348.17 199.69 354.28 200.82 360.59 202.22 367.1 203.79 373.6 205.04 380.31 206.26 387.23 207.35 394.15 207.85 401.29 208.1 408.65 208.04" stroke-dasharray="1 7" transform="rotate(28.28, 400, 400)" opacity="0.32"></path><path d="M412.68 219.45C419.72 218.76 426.81 217.83 433.91 216.73 441.01 215.16 448.14 213.57 455.27 212.04 462.4 210.3 469.53 208.82 476.63 207.68 483.72 206.61 490.76 206.05 497.72 206.05 504.66 206.34 511.49 207.29 518.17 208.91 524.8 210.92 531.25 213.62 537.47 216.98 543.58 220.75 549.43 225.12 554.95 230.04 560.31 235.3 565.3 241.02 569.87 247.14 574.23 253.49 578.12 260.14 581.5 267.03 584.62 274.05 587.21 281.24 589.21 288.53 590.96 295.87 592.13 303.27 592.7 310.69 593.05 318.12 592.84 325.54 592.08 332.95 591.18 340.33 589.8 347.69 587.99 355.01 586.17 362.3 584.02 369.57 581.6 376.8 579.34 384.02 576.93 391.2 574.44 398.34 572.28 405.48 570.15 412.58 568.11 419.62 566.54 426.65 565.15 433.45 563.97 440 563.29 446.53 562.79 452.79 562.44 458.74 562.64 467.45 563.79 482.99 564.45 489.71 564.84 506.93 559.78 518.19 556.34 520.33 552.21 522.82 541.49 528.93 534.99 533.06 530.39 536.59 525.43 540.6 520.14 545.11 514.75 550.34 509.07 556.08 503.12 562.28 497.12 569.04 490.88 576.11 484.44 583.34 477.97 590.76 471.33 598.04 464.54 604.94 457.74 611.52 450.81 617.34 443.79 622.2 436.75 626.2 429.63 628.92 422.43 630.2 415.22 630.33 408.12 628.96 401.12 626.18 394.12 622.41 387.23 617.49 380.44 611.6 373.65 605.17 366.96 598.13 360.38 590.72 353.77 583.28 347.27 575.8 340.88 568.45 334.45 561.51 328.12 554.9 321.9 548.72 315.64 543.18 309.47 538.12 303.42 533.54 297.32 529.62 291.33 526.11 285.46 522.94 279.55 520.32 273.77 517.9 268.13 515.59 259.72 512.65 243.73 506.54 236.26 503 229.06 499.18 216.12 489.57 210.49 483.69 205.38 477.3 197.31 462.4 194.46 453.98 192.88 448.21 191.76 442.11 191.14 435.7 190.69 429.27 190.74 422.55 191.3 415.56 192.03 408.57 193.24 401.47 194.9 394.3 196.69 387.13 198.9 379.88 201.48 372.58 204.15 365.28 207.16 357.91 210.48 350.51 213.83 343.1 217.46 335.64 221.34 328.17 225.2 320.71 229.29 313.24 233.56 305.79 237.79 298.38 242.19 291.03 246.74 283.78 251.21 276.63 255.82 269.64 260.56 262.87 265.21 256.28 269.99 249.98 274.88 244.05 279.67 238.39 284.59 233.19 289.63 228.5 294.58 224.16 299.65 220.4 304.86 217.28 312.61 213.49 328.75 209.7 337.15 209.58 342.76 209.88 348.53 210.64 354.48 211.8 360.4 212.91 366.5 214.24 372.78 215.7 379.04 216.83 385.5 217.93 392.15 218.9 398.79 219.33 405.63 219.52 412.67 219.45" stroke-dasharray="9 7" transform="rotate(32.32, 400, 400)" opacity="0.35"></path><path d="M416.18 230.86C422.88 230.21 429.61 229.35 436.33 228.34 443.05 226.89 449.77 225.42 456.48 223.99 463.18 222.35 469.85 220.91 476.46 219.77 483.06 218.64 489.59 217.95 496.01 217.74 502.4 217.74 508.67 218.33 514.76 219.51 520.8 221.01 526.63 223.15 532.23 225.88 537.72 228.98 542.94 232.65 547.83 236.85 552.57 241.38 556.96 246.37 560.94 251.77 564.73 257.41 568.08 263.39 570.96 269.64 573.62 276.04 575.79 282.65 577.43 289.42 578.87 296.26 579.78 303.21 580.17 310.22 580.39 317.26 580.11 324.33 579.35 331.39 578.49 338.46 577.22 345.52 575.56 352.54 573.93 359.55 572 366.53 569.82 373.44 567.81 380.36 565.65 387.21 563.41 393.99 561.46 400.76 559.53 407.46 557.64 414.05 556.17 420.64 554.84 426.96 553.67 433 552.64 441.89 551.78 458.04 551.79 465.24 552.66 477.76 553.17 492.64 552.55 496.28 549.61 502.61 540.98 511.57 536.54 515.05 531.52 519.45 519.45 530.75 512.49 537.86 507.66 543.33 502.53 549.2 497.14 555.41 491.68 562.05 485.99 568.88 480.09 575.76 474.15 582.74 468.03 589.5 461.74 595.85 455.43 601.87 448.98 607.16 442.4 611.55 435.82 615.17 429.12 617.63 422.32 618.79 415.52 618.94 408.78 617.74 402.13 615.28 395.47 611.94 388.89 607.53 382.39 602.21 375.89 596.37 369.46 589.93 363.13 583.06 356.78 576.1 350.52 569.01 344.34 561.94 338.15 555.14 332.04 548.56 326.02 542.29 319.97 536.52 314.02 531.13 308.17 526.14 302.29 521.71 296.51 517.65 290.85 513.91 285.17 510.68 279.61 507.67 274.2 504.82 266.14 501.11 250.89 493.95 243.78 490.16 236.97 486.28 224.76 477.08 219.47 471.63 214.69 465.78 207.17 452.2 204.54 444.5 203.08 439.22 202.07 433.61 201.51 427.68 201.13 421.74 201.21 415.5 201.77 408.95 202.49 402.41 203.66 395.74 205.26 388.97 206.98 382.2 209.09 375.33 211.56 368.39 214.12 361.46 217 354.46 220.19 347.42 223.41 340.4 226.9 333.34 230.63 326.28 234.35 319.25 238.3 312.24 242.43 305.28 246.52 298.4 250.79 291.6 255.21 284.96 259.56 278.43 264.06 272.1 268.69 266.03 273.24 260.16 277.91 254.6 282.69 249.43 287.39 244.53 292.21 240.08 297.14 236.13 304.48 230.96 319.65 223.97 327.49 222.19 335.38 221.37 351.8 222.42 360.35 223.98 366.07 225.04 371.95 226.27 377.99 227.61 384.02 228.63 390.21 229.59 396.58 230.45 402.93 230.8 409.47 230.95 416.17 230.86" stroke-dasharray="9 10" transform="rotate(36.36, 400, 400)" opacity="0.39"></path><path d="M419.01 242.27C425.36 241.66 431.7 240.87 438.03 239.95 444.35 238.63 450.65 237.28 456.91 235.96 469.4 232.73 481.66 230.47 493.45 229.63 505.1 229.4 516.11 231.3 526.19 235.35 535.88 240.62 544.4 247.98 551.44 257.06 557.85 267.1 562.57 278.42 565.44 290.57 567.64 303.17 568.03 316.23 566.66 329.41 565.03 342.73 562.09 356.02 558.11 369.05 556.33 375.58 554.41 382.04 552.4 388.4 550.66 394.77 548.9 401.04 547.17 407.18 545.17 416.25 542.27 432.94 541.35 440.5 541.21 450.32 541.14 458.82 540.91 465.96 541.31 475.95 537.75 490.89 532.71 497.49 528.59 503.1 522.98 509.39 515.98 516.76 508.65 526.13 500.04 536.86 490.33 548.71 480.42 561.79 469.58 574.82 457.99 586.67 452.17 592.13 446.19 596.92 440.07 600.86 433.94 604.12 427.67 606.33 421.29 607.38 414.9 607.55 408.55 606.51 402.26 604.35 395.96 601.4 389.71 597.47 383.53 592.71 371.15 581.79 359 568.98 347.17 555.48 335.29 542.64 323.69 530.51 312.48 519.55 301.21 510.42 290.34 502.45 280.02 495.37 269.72 489.68 260.05 484.14 251.21 478.34 242.57 473.07 234.9 466.94 228.44 459.75 222.41 452.59 217.73 444.16 214.63 434.45 212.84 426.99 211.62 410.51 212.23 401.52 212.94 395.43 214.07 389.2 215.6 382.87 217.24 376.54 219.25 370.11 221.61 363.62 226.54 350.66 232.69 337.49 239.81 324.36 246.95 311.43 254.9 298.75 263.47 286.69 271.85 275.18 280.79 264.67 290.16 255.61 299.26 247.55 308.83 241.29 318.8 237.14 328.52 234.06 338.74 232.97 349.41 233.75 359.93 234.79 371.01 236.87 382.61 239.52 388.39 240.41 394.31 241.25 400.38 241.99 406.44 242.27 412.65 242.37 419 242.27" stroke-dasharray="1 0" transform="rotate(40.400000000000006, 400, 400)" opacity="0.43"></path><path d="M421.05 253.68C433.01 252.08 444.86 250.06 456.46 247.94 468.03 244.94 479.27 242.74 489.98 241.73 500.55 241.1 510.42 242.31 519.35 245.4 527.93 249.49 535.37 255.51 541.43 263.17 546.95 271.71 550.95 281.57 553.28 292.34 555.1 303.6 555.33 315.44 554.03 327.51 552.58 339.78 549.98 352.1 546.46 364.21 543.5 376.37 540.17 388.26 536.71 399.65 534.49 411.03 532.55 421.32 530.9 430.45 530.45 439.53 530.02 447.45 529.43 454.21 529.29 463.94 525.42 480.04 520.77 487.96 517.08 494.47 512.07 501.69 505.8 509.86 499.28 519.67 491.56 530.53 482.8 542.12 473.87 554.52 464 566.61 453.36 577.39 442.67 586.82 431.3 593.32 419.38 595.97 407.46 595.56 395.59 591.02 383.9 583.1 372.21 573.32 360.67 561.62 349.41 549.03 338.12 536.75 327.07 524.8 316.4 513.66 305.71 503.96 295.4 495.21 285.64 487.29 275.93 480.63 266.85 474.27 258.57 467.89 250.51 462.1 243.38 455.76 237.41 448.63 231.84 441.65 227.55 433.64 224.73 424.55 222.46 415.45 221.74 405.23 222.7 393.94 224.21 382.65 227.25 370.88 231.62 358.87 236.3 346.93 242.13 334.86 248.89 322.92 255.71 311.23 263.31 299.91 271.53 289.3 279.61 279.25 288.24 270.26 297.29 262.7 306.13 256.02 315.41 251.02 325.05 247.91 334.5 245.63 344.39 245.06 354.67 246.08 364.83 247.14 375.46 249.06 386.53 251.43 397.55 252.61 409.08 253.43 421.04 253.68" stroke-dasharray="10 6" transform="rotate(44.44, 400, 400)" opacity="0.47"></path><path d="M422.22 265.09C433.41 263.62 444.41 261.82 455.08 259.93 465.72 257.18 475.95 255.1 485.6 253.99 495.11 253.08 503.9 253.73 511.76 256.01 519.32 259.07 525.78 263.86 530.97 270.18 535.72 277.27 539.1 285.66 541 295 542.52 304.84 542.66 315.34 541.47 326.18 540.22 337.24 537.97 348.45 534.89 359.54 532.32 370.69 529.38 381.64 526.24 392.14 524.17 402.65 522.25 412.18 520.51 420.69 519.8 429.2 519.06 436.73 518.16 443.33 517.89 450.07 517.11 456.1 515.64 461.61 514.37 467.66 512.14 473.63 508.86 479.8 505.5 487.07 500.97 494.99 495.33 503.7 489.51 513.7 482.59 524.45 474.68 535.58 466.64 547.19 457.69 558.28 447.97 568 438.19 576.44 427.72 582.21 416.67 584.56 405.61 584.27 394.53 580.35 383.56 573.37 372.59 564.69 361.73 554.12 351.1 542.53 340.46 530.98 330.05 519.43 319.97 508.38 309.92 498.39 300.24 489.13 291.08 480.59 282.02 473.12 273.56 466.02 265.88 459.05 258.42 452.69 251.86 446.01 246.38 438.83 241.28 431.84 237.38 424.08 234.85 415.47 232.82 406.87 232.21 397.35 233.17 386.92 234.62 376.5 237.49 365.71 241.61 354.78 246.02 343.92 251.51 333.05 257.89 322.42 264.34 312.05 271.56 302.14 279.38 293.03 287.11 284.43 295.38 276.9 304.06 270.74 312.58 265.32 321.52 261.42 330.79 259.19 339.92 257.56 349.44 257.38 359.28 258.51 369.03 259.54 379.19 261.25 389.69 263.32 400.15 264.26 411.02 264.91 422.22 265.09" stroke-dasharray="3 5" transform="rotate(48.48, 400, 400)" opacity="0.51"></path><path d="M422.47 276.5C432.87 275.16 443 273.57 452.74 271.93 462.44 269.45 471.69 267.53 480.32 266.41 488.83 265.34 496.6 265.56 503.47 267.17 510.09 269.36 515.69 273.07 520.12 278.17 524.21 283.91 527.07 290.88 528.65 298.82 529.95 307.21 530.05 316.32 529 325.87 527.96 335.64 526.04 345.65 523.37 355.66 521.18 365.74 518.6 375.71 515.77 385.37 513.85 395.02 511.97 403.87 510.17 411.9 509.26 419.94 508.26 427.23 507.08 433.83 506.49 440.61 505.43 446.92 503.8 452.94 502.4 459.49 500.18 466.11 497.07 472.99 493.95 480.8 489.82 489.19 484.7 498.17 479.47 508.11 473.24 518.52 466.11 529.04 458.87 539.77 450.78 549.83 441.93 558.51 433.04 566 423.45 571.08 413.26 573.16 403.08 572.98 392.81 569.6 382.6 563.52 372.41 555.9 362.28 546.47 352.33 535.94 342.41 525.24 332.68 514.29 323.27 503.57 313.91 493.58 304.91 484.08 296.41 475.16 288.03 467.11 280.23 459.43 273.17 451.97 266.34 445.07 260.35 438.04 255.37 430.74 250.75 423.65 247.24 416.04 244.99 407.81 243.18 399.61 242.69 390.71 243.63 381.12 245.02 371.53 247.72 361.73 251.57 351.91 255.68 342.17 260.82 332.54 266.79 323.25 272.86 314.21 279.67 305.72 287.04 298.05 294.38 290.84 302.24 284.67 310.49 279.77 318.63 275.44 327.18 272.48 336.02 270.94 344.76 269.81 353.85 269.88 363.21 271.03 372.5 271.96 382.13 273.44 392.02 275.19 401.89 275.91 412.07 276.39 422.47 276.5" stroke-dasharray="10 1" transform="rotate(52.52, 400, 400)" opacity="0.54"></path><path d="M421.79 287.91C431.38 286.7 440.64 285.31 449.46 283.91 458.24 281.73 466.54 280 474.2 278.94 481.76 277.8 488.59 277.73 494.57 278.83 502.77 281.71 513.72 294.51 516.27 303.96 517.41 310.95 517.52 318.7 516.63 326.95 515.8 335.41 514.2 344.21 511.93 353.13 510.07 362.11 507.83 371.1 505.3 379.94 503.54 388.78 501.72 397.03 499.89 404.65 498.81 412.31 497.6 419.44 496.21 426.1 495.33 432.96 494.04 439.56 492.26 446.03 490.71 452.98 488.48 460.09 485.49 467.47 482.54 475.58 478.72 484.16 474.05 493.14 469.31 502.8 463.7 512.68 457.26 522.45 450.74 532.23 443.44 541.25 435.42 548.91 427.36 555.49 418.63 559.93 409.31 561.75 400 561.66 390.57 558.8 381.15 553.55 371.76 546.94 362.4 538.63 353.21 529.19 344.04 519.45 335.05 509.28 326.37 499.09 317.75 489.37 309.47 479.92 301.67 470.89 294.01 462.52 286.89 454.47 280.47 446.68 274.28 439.37 268.87 432.06 264.4 424.65 260.25 417.46 257.12 409.94 255.14 402.05 253.56 394.2 253.18 385.86 254.1 377.06 255.42 368.26 257.93 359.43 261.5 350.72 265.32 342.08 270.08 333.67 275.62 325.71 281.28 317.95 287.63 310.8 294.53 304.48 301.42 298.52 308.82 293.54 316.59 289.73 324.3 286.33 332.38 284.11 340.74 283.1 349.03 282.31 357.62 282.52 366.45 283.6 375.23 284.38 384.27 285.59 393.52 287.04 402.75 287.53 412.2 287.86 421.79 287.91" stroke-dasharray="11 0" transform="rotate(56.56, 400, 400)" opacity="0.58"></path><path d="M420.21 299.32C428.97 298.23 437.35 297.05 445.28 295.88 453.17 294 460.55 292.5 467.31 291.55 476.97 290.32 492.27 292.91 497.59 297.08 501.71 302.84 505.02 319.46 504.38 329.72 503.76 336.91 502.46 344.52 500.55 352.37 499.01 360.27 497.08 368.32 494.84 376.38 493.22 384.43 491.48 392.11 489.67 399.37 488.47 406.68 487.1 413.68 485.53 420.39 484.42 427.29 482.93 434.1 481.02 440.89 479.34 448.08 477.08 455.47 474.18 463.09 471.35 471.26 467.79 479.77 463.5 488.5 459.18 497.66 454.09 506.85 448.27 515.76 442.41 524.54 435.83 532.51 428.59 539.2 421.33 544.92 413.43 548.77 404.98 550.34 396.53 550.33 387.94 547.93 379.36 543.45 370.79 537.8 362.25 530.58 353.84 522.25 345.47 513.54 337.27 504.27 329.35 494.81 321.5 485.59 313.98 476.46 306.92 467.59 299.99 459.18 293.58 451.01 287.82 443.09 282.26 435.56 277.44 428.1 273.47 420.67 269.79 413.43 267.03 406.05 265.32 398.48 263.96 390.97 263.68 383.17 264.57 375.13 265.8 367.09 268.13 359.18 271.4 351.54 274.91 343.94 279.29 336.69 284.39 329.96 289.6 323.38 295.47 317.44 301.85 312.31 308.26 307.45 315.14 303.49 322.38 300.56 329.6 297.89 337.16 296.23 344.97 295.59 352.75 295.01 360.79 295.25 369.03 296.19 377.23 296.77 385.65 297.71 394.21 298.85 402.75 299.14 411.46 299.32 420.21 299.32" stroke-dasharray="4 7" transform="rotate(60.599999999999994, 400, 400)" opacity="0.62"></path><path d="M417.8 310.73C425.71 309.77 433.24 308.77 440.29 307.83 447.32 306.25 453.84 305.01 459.77 304.21 474.86 303.88 489.67 312.33 491.61 318.49 492.58 323.08 492.79 328.4 492.26 334.3 491.83 340.32 490.81 346.83 489.24 353.67 487.98 360.55 486.34 367.7 484.37 375.01 482.9 382.31 481.26 389.44 479.49 396.35 478.21 403.29 476.74 410.11 475.06 416.79 473.76 423.64 472.12 430.52 470.12 437.43 468.33 444.66 466.04 452.08 463.22 459.68 460.49 467.66 457.14 475.84 453.18 484.09 449.21 492.58 444.59 500.95 439.34 508.92 434.06 516.67 428.15 523.62 421.65 529.38 415.13 534.29 408.04 537.58 400.44 538.93 392.83 538.99 385.1 537.01 377.36 533.24 369.64 528.48 361.93 522.3 354.35 515.08 346.81 507.43 339.42 499.16 332.3 490.58 325.26 482.06 318.52 473.48 312.22 465.02 306.04 456.86 300.33 448.84 295.23 441.03 290.32 433.5 286.07 426.07 282.6 418.76 279.38 411.6 276.99 404.42 275.53 397.22 274.37 390.07 274.18 382.82 275.03 375.5 276.19 368.19 278.31 361.15 281.29 354.49 284.48 347.86 288.46 341.67 293.09 336.02 297.85 330.49 303.2 325.61 309.04 321.48 314.92 317.52 321.25 314.38 327.91 312.12 334.57 310.01 341.55 308.74 348.77 308.3 355.96 307.82 363.4 308 370.98 308.74 378.56 309.11 386.3 309.78 394.13 310.62 401.96 310.73 409.88 310.78 417.8 310.73" stroke-dasharray="4 7" transform="rotate(64.64, 400, 400)" opacity="0.66"></path><path d="M414.65 322.14C421.72 321.3 428.4 320.49 434.62 319.75 443.67 317.98 459.05 315.88 465.17 316.1 474.09 319.96 480.49 333.62 480.28 340.7 480.03 345.7 479.26 351.2 478 357.11 476.99 363.05 475.62 369.35 473.9 375.94 472.59 382.53 471.05 389.1 469.35 395.6 468.05 402.15 466.52 408.69 464.78 415.22 463.35 421.88 461.61 428.63 459.55 435.46 457.68 442.5 455.39 449.71 452.66 457.01 450.02 464.56 446.86 472.2 443.19 479.78 439.55 487.45 435.34 494.9 430.61 501.89 425.86 508.61 420.57 514.56 414.77 519.43 408.96 523.6 402.64 526.38 395.88 527.52 389.11 527.63 382.23 526.03 375.34 522.91 368.47 518.97 361.61 513.78 354.87 507.63 348.18 501.06 341.63 493.85 335.33 486.25 329.1 478.6 323.16 470.77 317.62 462.94 312.19 455.27 307.2 447.65 302.76 440.19 298.48 432.91 294.79 425.73 291.8 418.7 289.02 411.79 286.98 404.93 285.77 398.17 284.8 391.45 284.69 384.75 285.5 378.14 286.56 371.53 288.48 365.31 291.16 359.53 294.02 353.78 297.59 348.5 301.75 343.8 306.02 339.16 310.85 335.14 316.11 331.81 321.43 328.57 327.16 326.05 333.2 324.28 339.26 322.55 345.61 321.51 352.17 321.15 358.74 320.68 365.51 320.73 372.4 321.24 379.29 321.39 386.31 321.78 393.38 322.35 400.45 322.29 407.57 322.22 414.65 322.14" stroke-dasharray="9 5" transform="rotate(68.68, 400, 400)" opacity="0.70"></path><path d="M410.89 333.55C423.35 331.51 434.27 330.03 443.22 329.51 455.36 328.32 467.97 337.75 468.44 348.77 468.39 357.07 466.68 367.33 463.44 379.11 461.43 390.87 458.44 403.11 454.69 415.45 451.93 428.14 447.9 441.43 442.55 454.84 437.54 468.75 430.75 482.47 422.24 494.62 413.74 505.69 403.39 513.44 391.49 516.11 379.58 515.6 367.35 509.67 355.55 499.88 343.89 488.56 332.85 475.1 323.19 461.07 313.92 447.22 306.31 433.36 301.09 420.15 296.56 407.25 294.66 394.64 295.97 382.81 298.08 370.97 303.13 360.92 310.37 353.02 318.02 345.23 327.58 339.75 338.31 336.81 349.15 333.79 361.05 332.83 373.35 333.63 385.69 333.11 398.42 333.16 410.89 333.55" stroke-dasharray="2 7" transform="rotate(72.72, 400, 400)" opacity="0.73"></path><path d="M406.68 344.96C417.48 343.27 426.86 342.24 434.51 342.08 444.93 341.34 456.03 349.12 456.76 358.25 456.96 365.09 455.68 373.82 452.97 384.2 451.18 394.58 448.37 405.7 444.78 417.09 441.95 428.69 437.98 440.83 432.92 452.9 428.16 465.12 421.95 476.92 414.37 487.08 406.81 496.25 397.76 502.56 387.45 504.7 377.14 504.43 366.61 499.74 356.51 491.79 346.53 482.53 337.14 471.21 328.98 459.12 321.15 446.95 314.78 434.53 310.47 422.63 306.71 410.89 305.2 399.52 306.43 389.06 308.31 378.61 312.69 369.96 318.97 363.32 325.61 356.68 333.92 352.06 343.28 349.52 352.77 346.73 363.2 345.6 373.96 345.88 384.77 345.02 395.88 344.75 406.68 344.96" stroke-dasharray="7 2" transform="rotate(76.76, 400, 400)" opacity="0.77"></path><path d="M402.2 356.37C411.36 355.01 419.28 354.36 425.73 354.53 434.57 354.31 444.31 361.1 445.25 368.73 445.63 374.39 444.73 381.78 442.5 390.77 440.95 399.75 438.38 409.55 435.05 419.66 432.27 429.88 428.49 440.51 423.81 450.9 419.37 461.24 413.77 471.02 407.11 479.24 400.49 486.61 392.69 491.62 383.93 493.29 375.17 493.21 366.31 489.61 357.87 483.35 349.53 476.04 341.75 466.87 335.05 456.83 328.6 446.58 323.41 435.94 319.96 425.61 316.92 415.34 315.77 405.4 316.9 396.33 318.52 387.27 322.25 379.87 327.57 374.23 333.18 368.53 340.23 364.51 348.18 362.16 356.27 359.5 365.17 358.15 374.34 357.95 383.57 356.83 393.03 356.31 402.2 356.37" stroke-dasharray="1 6" transform="rotate(80.80000000000001, 400, 400)" opacity="0.81"></path><path d="M397.62 367.78C408.44 366.56 424.39 367.12 429.22 369.73 432.82 373.32 434.1 387.52 432.04 398.18 430.72 405.76 428.46 414.06 425.48 422.63 422.88 431.23 419.41 440.07 415.21 448.58 411.19 456.94 406.27 464.69 400.55 471.07 394.88 476.79 388.33 480.63 381.08 481.88 373.82 481.93 366.59 479.28 359.77 474.54 353.01 469.02 346.77 461.91 341.45 453.95 336.31 445.75 332.22 437.06 329.57 428.5 327.2 419.93 326.36 411.58 327.37 403.94 328.73 396.3 331.79 390.05 336.16 385.24 340.75 380.35 346.54 376.78 353.08 374.51 359.73 371.95 367.07 370.4 374.64 369.81 382.26 368.53 390.07 367.83 397.62 367.78" stroke-dasharray="4 11" transform="rotate(84.84, 400, 400)" opacity="0.85"></path><path d="M393.14 379.19C405.1 376.99 413.89 378 418.51 382.16 423.31 385.56 424.53 393.51 421.57 405.77 419.74 418.02 414.47 432.5 407.14 445.69 400.31 458.28 390.54 467.96 379 470.47 367.46 469.99 356.4 461.94 348.23 450.27 340.52 437.77 336.35 423.54 337.83 411.19 340.23 398.83 347.85 390.48 358.03 386.34 368.55 381.25 381.19 378.77 393.14 379.19" stroke-dasharray="8 7" transform="rotate(88.88, 400, 400)" opacity="0.89"></path><path d="M388.95 390.6C401.15 389.8 412.58 400.36 411.1 412.82 409.65 422.1 405.41 432.7 399.58 442.02 394.03 450.87 386.43 457.47 377.8 459.06 369.17 458.98 361.16 453.66 355.42 445.62 349.93 437 347.06 426.74 348.3 417.39 350.07 408.04 355.64 401.28 363.1 397.44 370.78 393 380.08 390.53 388.95 390.6" stroke-dasharray="9 4" transform="rotate(92.92, 400, 400)" opacity="0.92"></path><path d="M385.21 402.01C396.93 399.73 403.46 406.18 400.63 418.68 398.89 431.17 389.01 445.21 377.51 447.65 366.01 447.18 357.2 434.54 358.77 421.99 361.31 409.43 373.48 401.58 385.21 402.01" stroke-dasharray="2 2" transform="rotate(96.96, 400, 400)" opacity="0.96"></path></g></svg>