<svg xmlns="http://www.w3.org/2000/svg" version="1.1" xmlns:xlink="http://www.w3.org/1999/xlink" xmlns:svgjs="http://svgjs.dev/svgjs" viewBox="0 0 800 800" opacity="0.92"><defs><linearGradient x1="50%" y1="0%" x2="50%" y2="100%" id="gggyrate-grad"><stop stop-color="hsl(184, 74%, 44%)" stop-opacity="1" offset="0%"></stop><stop stop-color="hsl(332, 87%, 70%)" stop-opacity="1" offset="100%"></stop></linearGradient></defs><g stroke-width="3" stroke="url(#gggyrate-grad)" fill="none"><rect width="897" height="897" x="-48.5" y="-48.5" transform="rotate(45.5, 400, 400)" opacity="0.05"></rect><rect width="828" height="828" x="-14" y="-14" transform="rotate(42, 400, 400)" opacity="0.13"></rect><rect width="759" height="759" x="20.5" y="20.5" transform="rotate(38.5, 400, 400)" opacity="0.21"></rect><rect width="690" height="690" x="55" y="55" transform="rotate(35, 400, 400)" opacity="0.29"></rect><rect width="621" height="621" x="89.5" y="89.5" transform="rotate(31.5, 400, 400)" opacity="0.37"></rect><rect width="552" height="552" x="124" y="124" transform="rotate(28, 400, 400)" opacity="0.45"></rect><rect width="483" height="483" x="158.5" y="158.5" transform="rotate(24.5, 400, 400)" opacity="0.53"></rect><rect width="414" height="414" x="193" y="193" transform="rotate(21, 400, 400)" opacity="0.60"></rect><rect width="345" height="345" x="227.5" y="227.5" transform="rotate(17.5, 400, 400)" opacity="0.68"></rect><rect width="276" height="276" x="262" y="262" transform="rotate(14, 400, 400)" opacity="0.76"></rect><rect width="207" height="207" x="296.5" y="296.5" transform="rotate(10.5, 400, 400)" opacity="0.84"></rect><rect width="138" height="138" x="331" y="331" transform="rotate(7, 400, 400)" opacity="0.92"></rect><rect width="69" height="69" x="365.5" y="365.5" transform="rotate(3.5, 400, 400)" opacity="1.00"></rect></g></svg>