<svg xmlns="http://www.w3.org/2000/svg" version="1.1" xmlns:xlink="http://www.w3.org/1999/xlink" xmlns:svgjs="http://svgjs.dev/svgjs" viewBox="0 0 1422 800" opacity="0.48"><defs><linearGradient x1="50%" y1="0%" x2="50%" y2="100%" id="oooscillate-grad"><stop stop-color="hsl(206, 75%, 49%)" stop-opacity="1" offset="0%"></stop><stop stop-color="hsl(331, 90%, 56%)" stop-opacity="1" offset="100%"></stop></linearGradient></defs><g stroke-width="1" stroke="url(#oooscillate-grad)" fill="none" stroke-linecap="round"><path d="M 0 910 Q 355.5 205 711 400 Q 1066.5 595 1422 910" opacity="1.00"></path><path d="M 0 896 Q 355.5 205 711 400 Q 1066.5 595 1422 896" opacity="0.99"></path><path d="M 0 882 Q 355.5 205 711 400 Q 1066.5 595 1422 882" opacity="0.97"></path><path d="M 0 868 Q 355.5 205 711 400 Q 1066.5 595 1422 868" opacity="0.96"></path><path d="M 0 854 Q 355.5 205 711 400 Q 1066.5 595 1422 854" opacity="0.94"></path><path d="M 0 840 Q 355.5 205 711 400 Q 1066.5 595 1422 840" opacity="0.93"></path><path d="M 0 826 Q 355.5 205 711 400 Q 1066.5 595 1422 826" opacity="0.91"></path><path d="M 0 812 Q 355.5 205 711 400 Q 1066.5 595 1422 812" opacity="0.90"></path><path d="M 0 798 Q 355.5 205 711 400 Q 1066.5 595 1422 798" opacity="0.88"></path><path d="M 0 784 Q 355.5 205 711 400 Q 1066.5 595 1422 784" opacity="0.87"></path><path d="M 0 770 Q 355.5 205 711 400 Q 1066.5 595 1422 770" opacity="0.85"></path><path d="M 0 756 Q 355.5 205 711 400 Q 1066.5 595 1422 756" opacity="0.84"></path><path d="M 0 742 Q 355.5 205 711 400 Q 1066.5 595 1422 742" opacity="0.82"></path><path d="M 0 728 Q 355.5 205 711 400 Q 1066.5 595 1422 728" opacity="0.81"></path><path d="M 0 714 Q 355.5 205 711 400 Q 1066.5 595 1422 714" opacity="0.79"></path><path d="M 0 700 Q 355.5 205 711 400 Q 1066.5 595 1422 700" opacity="0.78"></path><path d="M 0 686 Q 355.5 205 711 400 Q 1066.5 595 1422 686" opacity="0.76"></path><path d="M 0 672 Q 355.5 205 711 400 Q 1066.5 595 1422 672" opacity="0.75"></path><path d="M 0 658 Q 355.5 205 711 400 Q 1066.5 595 1422 658" opacity="0.73"></path><path d="M 0 644 Q 355.5 205 711 400 Q 1066.5 595 1422 644" opacity="0.72"></path><path d="M 0 630 Q 355.5 205 711 400 Q 1066.5 595 1422 630" opacity="0.70"></path><path d="M 0 616 Q 355.5 205 711 400 Q 1066.5 595 1422 616" opacity="0.69"></path><path d="M 0 602 Q 355.5 205 711 400 Q 1066.5 595 1422 602" opacity="0.67"></path><path d="M 0 588 Q 355.5 205 711 400 Q 1066.5 595 1422 588" opacity="0.66"></path><path d="M 0 574 Q 355.5 205 711 400 Q 1066.5 595 1422 574" opacity="0.64"></path><path d="M 0 560 Q 355.5 205 711 400 Q 1066.5 595 1422 560" opacity="0.63"></path><path d="M 0 546 Q 355.5 205 711 400 Q 1066.5 595 1422 546" opacity="0.61"></path><path d="M 0 532 Q 355.5 205 711 400 Q 1066.5 595 1422 532" opacity="0.60"></path><path d="M 0 518 Q 355.5 205 711 400 Q 1066.5 595 1422 518" opacity="0.58"></path><path d="M 0 504 Q 355.5 205 711 400 Q 1066.5 595 1422 504" opacity="0.57"></path><path d="M 0 490 Q 355.5 205 711 400 Q 1066.5 595 1422 490" opacity="0.55"></path><path d="M 0 476 Q 355.5 205 711 400 Q 1066.5 595 1422 476" opacity="0.54"></path><path d="M 0 462 Q 355.5 205 711 400 Q 1066.5 595 1422 462" opacity="0.53"></path><path d="M 0 448 Q 355.5 205 711 400 Q 1066.5 595 1422 448" opacity="0.51"></path><path d="M 0 434 Q 355.5 205 711 400 Q 1066.5 595 1422 434" opacity="0.50"></path><path d="M 0 420 Q 355.5 205 711 400 Q 1066.5 595 1422 420" opacity="0.48"></path><path d="M 0 406 Q 355.5 205 711 400 Q 1066.5 595 1422 406" opacity="0.47"></path><path d="M 0 392 Q 355.5 205 711 400 Q 1066.5 595 1422 392" opacity="0.45"></path><path d="M 0 378 Q 355.5 205 711 400 Q 1066.5 595 1422 378" opacity="0.44"></path><path d="M 0 364 Q 355.5 205 711 400 Q 1066.5 595 1422 364" opacity="0.42"></path><path d="M 0 350 Q 355.5 205 711 400 Q 1066.5 595 1422 350" opacity="0.41"></path><path d="M 0 336 Q 355.5 205 711 400 Q 1066.5 595 1422 336" opacity="0.39"></path><path d="M 0 322 Q 355.5 205 711 400 Q 1066.5 595 1422 322" opacity="0.38"></path><path d="M 0 308 Q 355.5 205 711 400 Q 1066.5 595 1422 308" opacity="0.36"></path><path d="M 0 294 Q 355.5 205 711 400 Q 1066.5 595 1422 294" opacity="0.35"></path><path d="M 0 280 Q 355.5 205 711 400 Q 1066.5 595 1422 280" opacity="0.33"></path><path d="M 0 266 Q 355.5 205 711 400 Q 1066.5 595 1422 266" opacity="0.32"></path><path d="M 0 252 Q 355.5 205 711 400 Q 1066.5 595 1422 252" opacity="0.30"></path><path d="M 0 238 Q 355.5 205 711 400 Q 1066.5 595 1422 238" opacity="0.29"></path><path d="M 0 224 Q 355.5 205 711 400 Q 1066.5 595 1422 224" opacity="0.27"></path><path d="M 0 210 Q 355.5 205 711 400 Q 1066.5 595 1422 210" opacity="0.26"></path><path d="M 0 196 Q 355.5 205 711 400 Q 1066.5 595 1422 196" opacity="0.24"></path><path d="M 0 182 Q 355.5 205 711 400 Q 1066.5 595 1422 182" opacity="0.23"></path><path d="M 0 168 Q 355.5 205 711 400 Q 1066.5 595 1422 168" opacity="0.21"></path><path d="M 0 154 Q 355.5 205 711 400 Q 1066.5 595 1422 154" opacity="0.20"></path><path d="M 0 140 Q 355.5 205 711 400 Q 1066.5 595 1422 140" opacity="0.18"></path><path d="M 0 126 Q 355.5 205 711 400 Q 1066.5 595 1422 126" opacity="0.17"></path><path d="M 0 112 Q 355.5 205 711 400 Q 1066.5 595 1422 112" opacity="0.15"></path><path d="M 0 98 Q 355.5 205 711 400 Q 1066.5 595 1422 98" opacity="0.14"></path><path d="M 0 84 Q 355.5 205 711 400 Q 1066.5 595 1422 84" opacity="0.12"></path><path d="M 0 70 Q 355.5 205 711 400 Q 1066.5 595 1422 70" opacity="0.11"></path><path d="M 0 56 Q 355.5 205 711 400 Q 1066.5 595 1422 56" opacity="0.09"></path><path d="M 0 42 Q 355.5 205 711 400 Q 1066.5 595 1422 42" opacity="0.08"></path><path d="M 0 28 Q 355.5 205 711 400 Q 1066.5 595 1422 28" opacity="0.06"></path></g></svg>