<svg xmlns="http://www.w3.org/2000/svg" version="1.1" xmlns:xlink="http://www.w3.org/1999/xlink" xmlns:svgjs="http://svgjs.dev/svgjs" viewBox="0 0 800 800" opacity="0.37"><defs><filter id="bbburst-blur-1" x="-100%" y="-100%" width="400%" height="400%"><feGaussianBlur in="SourceGraphic" stdDeviation="1"></feGaussianBlur></filter><filter id="bbburst-blur-2" x="-100%" y="-100%" width="400%" height="400%"><feGaussianBlur in="SourceGraphic" stdDeviation="2"></feGaussianBlur></filter><filter id="bbburst-blur-3" x="-100%" y="-100%" width="400%" height="400%"><feGaussianBlur in="SourceGraphic" stdDeviation="4"></feGaussianBlur></filter><filter id="bbburst-blur-4" x="-100%" y="-100%" width="400%" height="400%"><feGaussianBlur in="SourceGraphic" stdDeviation="12"></feGaussianBlur></filter><symbol id="bbburst-shape-2" viewBox="0 0 126 115"><path d="m63 0 62.77 43.877-23.976 70.996H24.206L.23 43.877 63 0Z"></path></symbol><symbol id="bbburst-shape-9" viewBox="0 0 182 172"><path d="M13.5809 69.845 91 13.5967l77.419 56.2483-29.571 91.012H43.1524L13.5809 69.845Z" stroke-width="22"></path></symbol><symbol id="bbburst-shape-10" viewBox="0 0 145 145"><circle cx="72.5" cy="72.5" r="61.5" fill="none" stroke-width="22"></circle></symbol><symbol id="bbburst-shape-11" viewBox="0 0 194 167"><path d="M10.398 161 97 11l86.603 150H10.397Z" stroke-width="11"></path></symbol><symbol id="bbburst-shape-13" viewBox="0 0 159 159"><path stroke-width="22" d="M11 11h137v137H11z"></path></symbol></defs><use xlink:href="#bbburst-shape-10" width="0" opacity="0" transform="matrix(0.7254709196311862,0.6882528203861434,-0.6882528203861434,0.7254709196311862,69.8016878047344,-29.994971151256394)" fill="none" stroke="#2c2891"></use><use xlink:href="#bbburst-shape-11" width="47.99042723280939" opacity="0.5511552903298328" transform="matrix(0.9512094306995192,0.3085459754206763,-0.3085459754206763,0.9512094306995192,836.5407830846978,-32.69888458167998)" fill="none" stroke="#2c2891" filter="url(#bbburst-blur-1)"></use><use xlink:href="#bbburst-shape-10" width="48.102352659381225" opacity="0.5381438591600599" transform="matrix(0.9614839646429683,-0.274861029857707,0.274861029857707,0.9614839646429683,265.2333814778193,194.0910144677835)" fill="none" stroke="#2c2891" filter="url(#bbburst-blur-1)"></use><use xlink:href="#bbburst-shape-11" width="20.7245717411463" opacity="0.9079602621534754" transform="matrix(0.9726112094022275,0.23243802474022277,-0.23243802474022277,0.9726112094022275,795.5745008117001,379.38565033923345)" fill="none" stroke="#2c2891"></use><use xlink:href="#bbburst-shape-2" width="63.60433459823311" opacity="0.25410271013354857" transform="matrix(0.9944994277373855,0.10474200795293502,-0.10474200795293502,0.9944994277373855,73.24655651273201,284.1632271891221)" fill="#e84393" filter="url(#bbburst-blur-2)"></use><use xlink:href="#bbburst-shape-10" width="26.821337891715956" opacity="0.8634227321136027" transform="matrix(0.7212196369574161,0.6927064567816681,-0.6927064567816681,0.7212196369574161,967.1387469620956,409.49217210689767)" fill="none" stroke="#2c2891"></use><use xlink:href="#bbburst-shape-9" width="70.11972126413382" opacity="0.31906356215689113" transform="matrix(0.9494054208567412,0.3140530955870906,-0.3140530955870906,0.9494054208567412,594.669666839212,-203.57869288414184)" fill="none" stroke="#fda043" filter="url(#bbburst-blur-2)"></use><use xlink:href="#bbburst-shape-10" width="72.24410902549364" opacity="0.13064596258320005" transform="matrix(0.9004924480928667,0.4348716487973386,-0.4348716487973386,0.9004924480928667,230.9756324283106,-76.94813103820206)" fill="none" stroke="#fda043" filter="url(#bbburst-blur-3)"></use><use xlink:href="#bbburst-shape-9" width="60.73105740018733" opacity="0.38505101720451274" transform="matrix(0.8296810565120749,0.558237713223504,-0.558237713223504,0.8296810565120749,391.12144310383763,353.5735262298602)" fill="none" stroke="#fda043" filter="url(#bbburst-blur-2)"></use><use xlink:href="#bbburst-shape-13" width="40.94025053758203" opacity="0.7100055979930429" transform="matrix(0.9996752199988257,0.025484397585569432,-0.025484397585569432,0.9996752199988257,618.8485282023448,165.30888736655584)" fill="none" stroke="#2c2891"></use><use xlink:href="#bbburst-shape-9" width="49.790201458476524" opacity="0.25165238053617145" transform="matrix(0.8319536458280328,0.5548451416327299,-0.5548451416327299,0.8319536458280328,860.964468203764,-281.92356935927927)" fill="none" stroke="#e84393" filter="url(#bbburst-blur-2)"></use><use xlink:href="#bbburst-shape-11" width="0" opacity="0" transform="matrix(0.964939748995227,-0.2624714857065969,0.2624714857065969,0.964939748995227,-19.171703523612535,28.47491494901343)" fill="none" stroke="#2c2891"></use><use xlink:href="#bbburst-shape-2" width="85.07555068370019" opacity="0.023843167586878322" transform="matrix(0.981360341451607,0.19217669012131885,-0.19217669012131885,0.981360341451607,156.74580023417855,-302.5984541641193)" fill="#fda043" filter="url(#bbburst-blur-3)"></use><use xlink:href="#bbburst-shape-9" width="65.92301958855667" opacity="0.3909799921843692" transform="matrix(0.9913363294455482,0.1313479422047697,-0.1313479422047697,0.9913363294455482,288.80810410556865,100.6623126415094)" fill="none" stroke="#e84393" filter="url(#bbburst-blur-2)"></use><use xlink:href="#bbburst-shape-11" width="30.24689285599849" opacity="0.7990004264833477" transform="matrix(0.9293078089134391,-0.3693061010767395,0.3693061010767395,0.9293078089134391,528.8016080802205,264.8012345783619)" fill="none" stroke="#e84393"></use><use xlink:href="#bbburst-shape-10" width="32.13155742905461" opacity="0.7708636647484923" transform="matrix(0.9239787596306902,-0.38244378900870024,0.38244378900870024,0.9239787596306902,585.6533302763885,212.18941179816164)" fill="none" stroke="#2c2891"></use><use xlink:href="#bbburst-shape-9" width="64.68673339170101" opacity="0.4315914878891368" transform="matrix(0.9283399800260612,-0.3717322712453309,0.3717322712453309,0.9283399800260612,241.24225289010903,17.456534963192723)" fill="none" stroke="#2c2891" filter="url(#bbburst-blur-2)"></use><use xlink:href="#bbburst-shape-9" width="93.67895098644627" opacity="0.26065152660475965" transform="matrix(0.7766704299563213,-0.6299071703286628,0.6299071703286628,0.7766704299563213,-10.240140132110355,-5.746850641341098)" fill="none" stroke="#fda043" filter="url(#bbburst-blur-2)"></use><use xlink:href="#bbburst-shape-9" width="22.904857332862715" opacity="0.963271108757346" transform="matrix(0.9268702176305842,0.3753819383899997,-0.3753819383899997,0.9268702176305842,912.4674563342334,400.0496295063478)" fill="none" stroke="#2c2891"></use><use xlink:href="#bbburst-shape-10" width="51.583602295261194" opacity="0.6782120107057517" transform="matrix(0.9779275997025488,-0.20894403494718705,0.20894403494718705,0.9779275997025488,633.255584880948,97.69001115964181)" fill="none" stroke="#fda043"></use><use xlink:href="#bbburst-shape-13" width="68.00062376189034" opacity="0.2343531080362381" transform="matrix(0.9236198759569288,0.3833096982040857,-0.3833096982040857,0.9236198759569288,222.78762826208833,105.38424946348533)" fill="none" stroke="#2c2891" filter="url(#bbburst-blur-3)"></use><use xlink:href="#bbburst-shape-11" width="72.67294703666488" opacity="0.1598510649217012" transform="matrix(0.9999818741907128,0.006020904419554481,-0.006020904419554481,0.9999818741907128,330.4101361110339,-319.5097389976852)" fill="none" stroke="#e84393" filter="url(#bbburst-blur-3)"></use><use xlink:href="#bbburst-shape-9" width="65.29439428757107" opacity="0.5132361305197222" transform="matrix(0.8545982549672424,-0.5192897289634604,0.5192897289634604,0.8545982549672424,85.28500709262704,387.43213691053273)" fill="none" stroke="#2c2891" filter="url(#bbburst-blur-1)"></use><use xlink:href="#bbburst-shape-11" width="45.64744392157706" opacity="0.6337991373149077" transform="matrix(0.9678733889898656,0.2514380696817256,-0.2514380696817256,0.9678733889898656,518.9113218088846,337.9596598870201)" fill="none" stroke="#fda043" filter="url(#bbburst-blur-1)"></use><use xlink:href="#bbburst-shape-13" width="58.50311361596915" opacity="0.4789140174562002" transform="matrix(0.940704906051205,-0.3392260009657181,0.3392260009657181,0.940704906051205,422.7101276404006,-41.43731096153408)" fill="none" stroke="#e84393" filter="url(#bbburst-blur-1)"></use><use xlink:href="#bbburst-shape-11" width="50.9094806096883" opacity="0.6100550737687178" transform="matrix(0.9659024720659063,-0.25890618852582725,0.25890618852582725,0.9659024720659063,497.6317599183416,70.64879832527873)" fill="none" stroke="#2c2891" filter="url(#bbburst-blur-1)"></use><use xlink:href="#bbburst-shape-2" width="41.63525686839407" opacity="0.5826500711043223" transform="matrix(0.883227049582571,0.4689456033333362,-0.4689456033333362,0.883227049582571,681.4295442714408,134.67466818093732)" fill="#2c2891" filter="url(#bbburst-blur-1)"></use><use xlink:href="#bbburst-shape-11" width="39.16159224918025" opacity="0.7787664904066155" transform="matrix(0.9788077134666611,0.2047814934464702,-0.2047814934464702,0.9788077134666611,678.8591563440569,281.1253099355156)" fill="none" stroke="#2c2891"></use><use xlink:href="#bbburst-shape-11" width="19.843334446793545" opacity="0.9155617848428972" transform="matrix(0.9865530801952113,-0.16344118195039156,0.16344118195039156,0.9865530801952113,693.52280621544,328.31370069087825)" fill="none" stroke="#2c2891"></use><use xlink:href="#bbburst-shape-13" width="45.35991952642871" opacity="0.6751909251343565" transform="matrix(0.9247143385075429,0.3806617818465066,-0.3806617818465066,0.9247143385075429,653.0227838654669,253.94865070836488)" fill="none" stroke="#2c2891"></use><use xlink:href="#bbburst-shape-13" width="64.82443840990865" opacity="0.3981564648039382" transform="matrix(0.9693022431013223,0.24587224633688334,-0.24587224633688334,0.9693022431013223,785.1534410208448,-191.95181234615444)" fill="none" stroke="#e84393" filter="url(#bbburst-blur-2)"></use><use xlink:href="#bbburst-shape-11" width="32.349247301037295" opacity="0.7415262152958851" transform="matrix(0.965157464702576,-0.2616697696121885,0.2616697696121885,0.965157464702576,425.6905533167983,369.46997663226296)" fill="none" stroke="#2c2891"></use><use xlink:href="#bbburst-shape-9" width="24.806086779130702" opacity="0.8338385385660695" transform="matrix(0.9017336918456089,0.43229197192463387,-0.43229197192463387,0.9017336918456089,799.8013930954512,396.85462268336045)" fill="none" stroke="#fda043"></use><use xlink:href="#bbburst-shape-10" width="29.738341889254556" opacity="0.8530262668355143" transform="matrix(0.8604096384717905,-0.5096030357296183,0.5096030357296183,0.8604096384717905,549.3707232923063,320.4252155487191)" fill="none" stroke="#fda043"></use></svg>