<svg xmlns="http://www.w3.org/2000/svg" version="1.1" xmlns:xlink="http://www.w3.org/1999/xlink" xmlns:svgjs="http://svgjs.dev/svgjs" viewBox="0 0 800 800" opacity="1"><defs><filter id="bbburst-blur-1" x="-100%" y="-100%" width="400%" height="400%"><feGaussianBlur in="SourceGraphic" stdDeviation="1"></feGaussianBlur></filter><filter id="bbburst-blur-2" x="-100%" y="-100%" width="400%" height="400%"><feGaussianBlur in="SourceGraphic" stdDeviation="2"></feGaussianBlur></filter><filter id="bbburst-blur-3" x="-100%" y="-100%" width="400%" height="400%"><feGaussianBlur in="SourceGraphic" stdDeviation="4"></feGaussianBlur></filter><filter id="bbburst-blur-4" x="-100%" y="-100%" width="400%" height="400%"><feGaussianBlur in="SourceGraphic" stdDeviation="12"></feGaussianBlur></filter><symbol id="bbburst-shape-2" viewBox="0 0 126 115"><path d="m63 0 62.77 43.877-23.976 70.996H24.206L.23 43.877 63 0Z"></path></symbol><symbol id="bbburst-shape-9" viewBox="0 0 182 172"><path d="M13.5809 69.845 91 13.5967l77.419 56.2483-29.571 91.012H43.1524L13.5809 69.845Z" stroke-width="22"></path></symbol><symbol id="bbburst-shape-10" viewBox="0 0 145 145"><circle cx="72.5" cy="72.5" r="61.5" fill="none" stroke-width="22"></circle></symbol><symbol id="bbburst-shape-11" viewBox="0 0 194 167"><path d="M10.398 161 97 11l86.603 150H10.397Z" stroke-width="11"></path></symbol><symbol id="bbburst-shape-13" viewBox="0 0 159 159"><path stroke-width="22" d="M11 11h137v137H11z"></path></symbol></defs><use xlink:href="#bbburst-shape-13" width="36.11168866303792" opacity="0.6545298024091583" transform="matrix(0.935608735066837,-0.35303865916728333,0.35303865916728333,0.935608735066837,364.19074308208246,-162.3647178453594)" fill="none" stroke="#fda043"></use><use xlink:href="#bbburst-shape-10" width="19.629042743905416" opacity="0.8345206258652358" transform="matrix(0.8706616030263565,-0.4918824788662178,0.4918824788662178,0.8706616030263565,476.7694175691649,-227.35367233317362)" fill="none" stroke="#2c2891"></use><use xlink:href="#bbburst-shape-13" width="63.52656689956841" opacity="0.44001323462771624" transform="matrix(0.8221130766175804,0.5693242391242238,-0.5693242391242238,0.8221130766175804,573.126305764921,13.600186787468147)" fill="none" stroke="#2c2891" filter="url(#bbburst-blur-2)"></use><use xlink:href="#bbburst-shape-11" width="63.95477507253514" opacity="0.2580311989767622" transform="matrix(0.9954361830622812,-0.09542958372746195,0.09542958372746195,0.9954361830622812,-6.440275390835964,-304.8712930366581)" fill="none" stroke="#e84393" filter="url(#bbburst-blur-2)"></use><use xlink:href="#bbburst-shape-13" width="20.494275598647647" opacity="0.8363362785617567" transform="matrix(0.910441025020188,-0.4136389004435989,0.4136389004435989,0.910441025020188,478.74546539829765,-286.91392333310296)" fill="none" stroke="#2c2891"></use><use xlink:href="#bbburst-shape-11" width="9.669161059475204" opacity="0.9799305930267957" transform="matrix(0.9509563685251824,0.30932504774330427,-0.30932504774330427,0.9509563685251824,906.3135000418517,-366.5866441583899)" fill="none" stroke="#2c2891"></use><use xlink:href="#bbburst-shape-13" width="90.05174243618077" opacity="0.006930838255775895" transform="matrix(0.9548143851906136,-0.2972027756146815,0.2972027756146815,0.9548143851906136,-72.00359033080115,325.64630966219175)" fill="none" stroke="#fda043" filter="url(#bbburst-blur-3)"></use><use xlink:href="#bbburst-shape-13" width="38.39837202808911" opacity="0.710772171993548" transform="matrix(0.7211525819870086,-0.6927762651054602,0.6927762651054602,0.7211525819870086,401.09818015667497,-6.8312899876762)" fill="none" stroke="#c1ffd7"></use><use xlink:href="#bbburst-shape-10" width="36.47069302957776" opacity="0.24254779626655143" transform="matrix(0.9528811123857015,0.303344005476601,-0.303344005476601,0.9528811123857015,769.8478736950105,358.8006328727418)" fill="none" stroke="#e84393" filter="url(#bbburst-blur-3)"></use><use xlink:href="#bbburst-shape-2" width="56.965509811318036" opacity="0.4043703238763874" transform="matrix(0.964318380563085,-0.26474527551627625,0.26474527551627625,0.964318380563085,119.80683722284533,-142.05548475758266)" fill="#2c2891" filter="url(#bbburst-blur-2)"></use><use xlink:href="#bbburst-shape-2" width="9.828728190807446" opacity="0.95025321955962" transform="matrix(0.8333059685411802,0.5528120501523511,-0.5528120501523511,0.8333059685411802,1003.0863275599726,-288.28143166658384)" fill="#2c2891"></use><use xlink:href="#bbburst-shape-2" width="8.894932510427516" opacity="0.9541779309843355" transform="matrix(0.8399843195956732,0.5426106733500493,-0.5426106733500493,0.8399843195956732,968.5403802216327,-328.6206532242122)" fill="#fda043"></use><use xlink:href="#bbburst-shape-10" width="88.32060477850744" opacity="0.13128539771366654" transform="matrix(0.917121023572876,-0.3986088660838345,0.3986088660838345,0.917121023572876,-122.15405487479545,133.5353261321656)" fill="none" stroke="#fda043" filter="url(#bbburst-blur-3)"></use><use xlink:href="#bbburst-shape-2" width="37.30725095587006" opacity="0.5933385737845727" transform="matrix(0.9979968126309754,0.06326422352652192,-0.06326422352652192,0.9979968126309754,403.01293921128047,-351.1687468349917)" fill="#fda043" filter="url(#bbburst-blur-1)"></use><use xlink:href="#bbburst-shape-11" width="19.6980208417758" opacity="0.8007134045902295" transform="matrix(0.9052536027255674,0.42487164503221514,-0.42487164503221514,0.9052536027255674,909.2881427953184,-174.09318098166355)" fill="none" stroke="#c1ffd7"></use><use xlink:href="#bbburst-shape-11" width="47.507527532484595" opacity="0.3825063750143044" transform="matrix(0.9838057089890297,-0.17923818499581112,0.17923818499581112,0.9838057089890297,93.20560015817864,-304.902524468997)" fill="none" stroke="#fda043" filter="url(#bbburst-blur-2)"></use><use xlink:href="#bbburst-shape-13" width="26.08219921533192" opacity="0.8505673402314546" transform="matrix(0.9617239498294233,0.27402015313566425,-0.27402015313566425,0.9617239498294233,826.959388501298,-256.29657205802755)" fill="none" stroke="#c1ffd7"></use><use xlink:href="#bbburst-shape-10" width="54.78881762658594" opacity="0.11095433098161667" transform="matrix(0.9088086462932012,-0.41721318821762926,0.41721318821762926,0.9088086462932012,87.21119464929018,368.29021206280004)" fill="none" stroke="#2c2891" filter="url(#bbburst-blur-3)"></use><use xlink:href="#bbburst-shape-13" width="22.9752801208595" opacity="0.7275859778581646" transform="matrix(0.7874556121722895,0.6163713644049054,-0.6163713644049054,0.7874556121722895,766.8584532668424,-291.05996667828157)" fill="none" stroke="#fda043"></use><use xlink:href="#bbburst-shape-13" width="31.681271159314985" opacity="0.8049259499679257" transform="matrix(0.9001216422729582,-0.4356386451083428,0.4356386451083428,0.9001216422729582,420.0021986055385,-315.8943043955275)" fill="none" stroke="#2c2891"></use><use xlink:href="#bbburst-shape-2" width="27.33290552917914" opacity="0.7506189612938524" transform="matrix(0.963812796520031,-0.26657999411853345,0.26657999411853345,0.963812796520031,649.797542393681,-134.34771489768818)" fill="#2c2891"></use><use xlink:href="#bbburst-shape-9" width="80.59924687617523" opacity="0.3504861268406474" transform="matrix(0.9999894442732127,0.004594708059428963,-0.004594708059428963,0.9999894442732127,374.13092815922937,120.60244786111019)" fill="none" stroke="#2c2891" filter="url(#bbburst-blur-2)"></use><use xlink:href="#bbburst-shape-10" width="28.287656761470036" opacity="0.7727919720596735" transform="matrix(0.9064453118510885,0.42232321345526697,-0.42232321345526697,0.9064453118510885,776.0516399699997,-229.97666322488533)" fill="none" stroke="#fda043"></use><use xlink:href="#bbburst-shape-9" width="74.62462638675207" opacity="0.2077209990821859" transform="matrix(0.9935541748845569,-0.1133582884903762,0.1133582884903762,0.9935541748845569,376.78343619633233,321.5698473402307)" fill="none" stroke="#fda043" filter="url(#bbburst-blur-3)"></use><use xlink:href="#bbburst-shape-2" width="59.852504785215565" opacity="0.4856546064376489" transform="matrix(0.7230177459304308,0.6908294572972978,-0.6908294572972978,0.7230177459304308,811.5278340198295,143.38600914931095)" fill="#2c2891" filter="url(#bbburst-blur-1)"></use><use xlink:href="#bbburst-shape-2" width="36.508548869286706" opacity="0.6655319677664908" transform="matrix(0.8813828065435453,0.47240273954479073,-0.47240273954479073,0.8813828065435453,927.7815665960721,-29.744386895268917)" fill="#2c2891"></use><use xlink:href="#bbburst-shape-13" width="33.16395453772118" opacity="0.7834389738237604" transform="matrix(0.9101522253943538,-0.4142739752986005,0.4142739752986005,0.9101522253943538,502.333723176974,-174.86927474047206)" fill="none" stroke="#fda043"></use><use xlink:href="#bbburst-shape-2" width="40.48770621389963" opacity="0.7118180731199492" transform="matrix(0.9680598516976175,0.2507192125290495,-0.2507192125290495,0.9680598516976175,695.9715554237439,-171.07923544499354)" fill="#2c2891"></use><use xlink:href="#bbburst-shape-9" width="22.534789544588754" opacity="0.8711960284797462" transform="matrix(0.8162169353491463,-0.5777455447247062,0.5777455447247062,0.8162169353491463,432.91381624011865,-296.93495730988616)" fill="none" stroke="#2c2891"></use><use xlink:href="#bbburst-shape-11" width="0.07310350651678596" opacity="0.8389862042049072" transform="matrix(0.9875069711620766,-0.15757532137457772,0.15757532137457772,0.9875069711620766,575.9198511676601,-394.91832513765786)" fill="none" stroke="#fda043"></use><use xlink:href="#bbburst-shape-2" width="16.666980583417363" opacity="0.9204957395336918" transform="matrix(0.8839766052835667,-0.46753113405562763,0.46753113405562763,0.8839766052835667,552.5247913580693,-290.515175601961)" fill="#c1ffd7"></use><use xlink:href="#bbburst-shape-9" width="10.905784715139166" opacity="0.9201544360235674" transform="matrix(0.9888288048219802,-0.1490556766927515,0.1490556766927515,0.9888288048219802,714.2515895433244,-317.68199496390775)" fill="none" stroke="#e84393"></use><use xlink:href="#bbburst-shape-9" width="42.39223756889618" opacity="0.6286587156675729" transform="matrix(0.9988063313230455,0.04884580339188495,-0.04884580339188495,0.9988063313230455,598.1972042044521,-88.08044722470459)" fill="none" stroke="#fda043" filter="url(#bbburst-blur-1)"></use><use xlink:href="#bbburst-shape-13" width="17.851208596779546" opacity="0.8867437597260037" transform="matrix(0.9325429873086162,0.36105896585117786,-0.36105896585117786,0.9325429873086162,850.5954239798461,-301.9705582460812)" fill="none" stroke="#fda043"></use><use xlink:href="#bbburst-shape-11" width="38.952639686559365" opacity="0.497393361050235" transform="matrix(0.8465409296298256,0.5323236369554434,-0.5323236369554434,0.8465409296298256,502.0753800590981,-260.2415319566361)" fill="none" stroke="#e84393" filter="url(#bbburst-blur-1)"></use><use xlink:href="#bbburst-shape-2" width="16.587650953347243" opacity="0.9160819593830073" transform="matrix(0.7364920643919232,-0.6764461834379165,0.6764461834379165,0.7364920643919232,442.5591482728531,-266.1743683331084)" fill="#e84393"></use><use xlink:href="#bbburst-shape-10" width="48.54273363285009" opacity="0.5864542257169695" transform="matrix(0.7164682484610563,-0.6976197022354989,0.6976197022354989,0.7164682484610563,366.60402710707973,120.55314331992042)" fill="none" stroke="#fda043" filter="url(#bbburst-blur-1)"></use><use xlink:href="#bbburst-shape-11" width="79.07953375105285" opacity="0.3014616881947527" transform="matrix(0.7645763545851556,-0.6445331628467804,0.6445331628467804,0.7645763545851556,-66.53384154668208,111.38646331896416)" fill="none" stroke="#e84393" filter="url(#bbburst-blur-2)"></use><use xlink:href="#bbburst-shape-9" width="12.0765176392071" opacity="0.8888094168049703" transform="matrix(0.995814207852783,0.09140056585456305,-0.09140056585456305,0.995814207852783,802.4947789904186,-291.3668867680196)" fill="none" stroke="#2c2891"></use><use xlink:href="#bbburst-shape-13" width="57.63080131410417" opacity="0.21670887162039132" transform="matrix(0.8958135212348354,-0.44443012406096555,0.44443012406096555,0.8958135212348354,47.95629641718409,213.7111552203561)" fill="none" stroke="#2c2891" filter="url(#bbburst-blur-3)"></use><use xlink:href="#bbburst-shape-11" width="49.921077461336225" opacity="0.35440537155816565" transform="matrix(0.9930784630035948,0.11745282592776503,-0.11745282592776503,0.9930784630035948,588.9161981263168,201.14401391825828)" fill="none" stroke="#2c2891" filter="url(#bbburst-blur-2)"></use><use xlink:href="#bbburst-shape-13" width="25.825553874921642" opacity="0.7327275697789628" transform="matrix(0.8193999892340853,-0.5732221712767056,0.5732221712767056,0.8193999892340853,317.62193179346843,-208.00061382147578)" fill="none" stroke="#e84393"></use><use xlink:href="#bbburst-shape-11" width="18.753928726164443" opacity="0.844149846521774" transform="matrix(0.9871439601131116,0.1598336698327468,-0.1598336698327468,0.9871439601131116,835.1969468934459,-241.97184426781962)" fill="none" stroke="#fda043"></use><use xlink:href="#bbburst-shape-9" width="38.80168095334872" opacity="0.6580877502442595" transform="matrix(0.9757500241107042,-0.2188878490185329,0.2188878490185329,0.9757500241107042,365.10532807851365,-290.97232406139204)" fill="none" stroke="#fda043"></use><use xlink:href="#bbburst-shape-11" width="49.39307337282975" opacity="0.34704163196359616" transform="matrix(0.9929214838245094,0.11877258505115759,-0.11877258505115759,0.9929214838245094,761.5876401373456,249.3241488804013)" fill="none" stroke="#e84393" filter="url(#bbburst-blur-2)"></use><use xlink:href="#bbburst-shape-11" width="10.878274616708216" opacity="0.948551828579392" transform="matrix(0.9922014881064056,-0.12464432197029375,0.12464432197029375,0.9922014881064056,704.7265471696594,-363.987546821888)" fill="none" stroke="#e84393"></use><use xlink:href="#bbburst-shape-9" width="85.13481995468578" opacity="0.23145201377051283" transform="matrix(0.7185187527712231,-0.6955075858077221,0.6955075858077221,0.7185187527712231,-227.07521230494586,16.200814179749898)" fill="none" stroke="#e84393" filter="url(#bbburst-blur-3)"></use><use xlink:href="#bbburst-shape-9" width="48.30368646606448" opacity="0.46421247019560774" transform="matrix(0.9907548709959844,-0.13566423846294312,0.13566423846294312,0.9907548709959844,628.1447561480646,134.19741249567835)" fill="none" stroke="#2c2891" filter="url(#bbburst-blur-1)"></use><use xlink:href="#bbburst-shape-10" width="54.670388858968934" opacity="0.5496482573279619" transform="matrix(0.8192499913254112,0.5734365280598314,-0.5734365280598314,0.8192499913254112,700.0745004969294,-13.79108880680053)" fill="none" stroke="#e84393" filter="url(#bbburst-blur-1)"></use><use xlink:href="#bbburst-shape-2" width="60.386471121268656" opacity="0.5529289573517252" transform="matrix(0.8257425209579505,-0.5640472401155853,0.5640472401155853,0.8257425209579505,152.52069183797926,-107.5557574597052)" fill="#2c2891" filter="url(#bbburst-blur-1)"></use><use xlink:href="#bbburst-shape-13" width="31.320119275725926" opacity="0.5631481885381442" transform="matrix(0.8498173558854892,0.5270772824129264,-0.5270772824129264,0.8498173558854892,952.5339192205181,86.34807022908313)" fill="none" stroke="#fda043" filter="url(#bbburst-blur-1)"></use></svg>